<?xml version="1.0" encoding="UTF-8" standalone="no"?>
<!-- Uploaded to: SVG Repo, www.svgrepo.com, Transformed by: SVG Repo Mixer Tools -->

<svg
   width="550"
   height="550"
   viewBox="0 0 704 704"
   class="icon"
   version="1.1"
   fill="#000000"
   stroke="#000000"
   stroke-width="1.024"
   id="svg5"
   sodipodi:docname="biscuit.svg"
   inkscape:version="1.4.2 (f4327f4, 2025-05-13)"
   xmlns:inkscape="http://www.inkscape.org/namespaces/inkscape"
   xmlns:sodipodi="http://sodipodi.sourceforge.net/DTD/sodipodi-0.dtd"
   xmlns="http://www.w3.org/2000/svg"
   xmlns:svg="http://www.w3.org/2000/svg">
  <defs
     id="defs5">
    <clipPath
       clipPathUnits="userSpaceOnUse"
       id="clipPath10">
      <rect
         style="fill:none;fill-opacity:1;stroke-width:1.31072"
         id="rect10"
         width="710.40002"
         height="710.40002"
         x="143.38538"
         y="181.45229"
         ry="0" />
    </clipPath>
  </defs>
  <sodipodi:namedview
     id="namedview5"
     pagecolor="#ffffff"
     bordercolor="#000000"
     borderopacity="0.25"
     inkscape:showpageshadow="2"
     inkscape:pageopacity="0.0"
     inkscape:pagecheckerboard="0"
     inkscape:deskcolor="#d1d1d1"
     inkscape:zoom="1.00875"
     inkscape:cx="285.0062"
     inkscape:cy="349.44238"
     inkscape:window-width="1920"
     inkscape:window-height="1009"
     inkscape:window-x="1912"
     inkscape:window-y="-8"
     inkscape:window-maximized="1"
     inkscape:current-layer="svg5" />
  <g
     id="SVGRepo_bgCarrier"
     stroke-width="0"
     transform="translate(-147.33424,-369.61005)" />
  <g
     id="SVGRepo_tracerCarrier"
     stroke-linecap="round"
     stroke-linejoin="round"
     transform="translate(-147.33424,-369.61005)" />
  <g
     id="SVGRepo_iconCarrier"
     transform="matrix(0.9801447,0,0,0.97817319,-136.79599,-154.71191)">
    <path
       d="m 178.50944,475.94125 c 0,0 26.62626,-107.32363 82.42817,-89.05099 0,0 63.23358,-21.7002 71.22109,1.46079 0,0 17.30689,22.84232 10.6634,30.91011 0,0 110.75605,-41.09185 121.75759,-16.02733 0,0 40.17353,20.78067 32.86837,40.61748 0,0 122.6017,-68.26666 133.74554,-8.61634 0,0 78.41192,1.81717 67.13064,37.45751 0,0 171.42929,-36.04781 149.48947,98.51997 0,0 36.86031,154.69285 -226.23383,129.99323 0,-10e-4 -435.94164,-74.75447 -443.07044,-225.26443 z m 0,0"
       fill="#ffcc85"
       id="path1"
       clip-path="url(#clipPath10)" />
    <path
       d="m 186.51641,478.12331 c 0,0 386.10574,259.26883 653.67468,91.93364 0,0 6.17643,24.20702 3.05659,38.10946 -0.41354,2.62601 -13.30644,143.85066 -325.71711,67.49187 -71.23204,-17.4127 -184.58248,-52.35732 -272.9645,-110.31453 -0.001,0 -63.15451,-41.25727 -58.04966,-87.22044 z m 0,0"
       fill="#ffa9a0"
       id="path2" />
    <path
       d="m 624.0198,437.94977 c -8.91191,-1.8123 -16.73522,5.81519 6.47078,-1.99353 m 56.24951,40.78655 c -8.91434,-1.8123 0.57653,1.62013 23.77523,-6.1898"
       fill="#ffffff"
       id="path3" />
    <path
       d="m 353.77741,456.14092 c 1.44619,4.18898 -0.1569,8.54337 -3.58082,9.72562 l -5.37001,1.85123 c -3.42027,1.1786 -7.37085,-1.26132 -8.81582,-5.45029 -1.44498,-4.18898 0.16055,-8.54823 3.58082,-9.72684 l 5.36879,-1.85123 c 1.64445,-0.56558 3.49811,-0.31137 5.14986,0.71155 1.6554,1.02048 2.97388,2.72332 3.66718,4.73996 z m 123.86302,77.62983 c 1.44376,4.18776 -0.15569,8.54215 -3.5796,9.72441 l -5.37245,1.85122 c -3.42148,1.18225 -7.37206,-1.26131 -8.81582,-5.45029 -0.69208,-2.00934 -0.70667,-4.16951 -0.0365,-5.9952 0.67262,-1.82081 1.97408,-3.16605 3.6161,-3.73407 l 5.37244,-1.84879 c 1.64567,-0.57045 3.49689,-0.31138 5.14864,0.70424 1.65297,1.029 2.97145,2.73427 3.66718,4.74848 z m 53.66972,-35.50533 c 1.4462,4.19262 -0.15569,8.55066 -3.58325,9.73292 l -5.36393,1.85122 c -3.42148,1.18226 -7.36963,-1.26618 -8.81339,-5.45394 -1.44741,-4.19019 0.15569,-8.54093 3.57595,-9.72319 l 5.36515,-1.85122 c 3.42757,-1.18226 7.37571,1.25766 8.81947,5.44421 z m 61.21206,-38.09486 c 1.45106,4.19627 -0.15812,8.54702 -3.5796,9.72927 l -5.37001,1.85487 c -3.42392,1.17861 -7.36963,-1.25888 -8.81947,-5.45393 -1.44498,-4.19263 0.16298,-8.54702 3.58203,-9.72927 l 5.37245,-1.85123 c 3.42027,-1.17982 7.37084,1.25766 8.8146,5.45029 z m 34.10171,98.8508 c 1.44498,4.19263 -0.15933,8.55067 -3.5796,9.72928 l -5.37244,1.85487 c -3.42392,1.1786 -7.37206,-1.25767 -8.81947,-5.45394 -1.4462,-4.19262 0.16055,-8.54702 3.5796,-9.72684 l 5.37244,-1.85365 c 3.42027,-1.17983 7.37206,1.26131 8.81947,5.45028 z M 733.1533,522.2754 c 1.44498,4.19505 -0.15204,8.5458 -3.5796,9.72927 l -5.36758,1.85001 c -3.42392,1.18347 -7.3745,-1.25767 -8.81947,-5.45394 -1.44376,-4.18776 0.15933,-8.54216 3.58203,-9.72563 l 5.37001,-1.85 c 3.42635,-1.18226 7.36477,1.25766 8.81461,5.45029 z m 55.13051,-2.03124 c 1.44984,4.19384 -0.15569,8.54823 -3.5796,9.72683 l -5.37245,1.85488 c -3.42148,1.18225 -7.36476,-1.25888 -8.81217,-5.45394 -1.44498,-4.19019 0.15569,-8.54702 3.57717,-9.72319 l 5.37001,-1.85487 c 3.42756,-1.18226 7.37571,1.26253 8.81704,5.45029 z m 0,0"
       fill="#c3e4f0"
       id="path4" />
    <path
       d="m 663.67762,717.95306 c -17.42609,0 -36.02348,-0.92804 -55.78853,-2.7817 l -0.51329,-0.0669 C 605.64743,714.80768 432.95925,684.7721 301.43104,625.854 a 6.7813465,6.7813465 0 1 1 5.54273,-12.3784 c 127.68345,57.19459 294.9408,86.90055 302.44544,88.21174 99.48207,9.30842 169.76173,-6.19589 203.31731,-44.82349 31.04999,-35.74373 21.05556,-79.60634 20.95339,-80.04421 l -0.25177,-1.05576 0.0888,-1.08008 c 3.83502,-46.02399 -9.92753,-73.36423 -42.07463,-83.58732 a 6.787015,6.787015 0 0 1 -4.40791,-8.52147 6.789448,6.789448 0 0 1 8.52147,-4.40791 c 38.28582,12.17648 55.62798,44.68483 51.56307,96.62495 1.59337,7.82939 8.9107,52.90344 -24.14864,90.96546 -30.15721,34.71717 -83.61894,52.19555 -159.30267,52.19555 z M 267.76963,608.76361 c -1.06792,0 -2.15287,-0.25177 -3.16241,-0.78573 -21.02758,-11.11708 -39.47537,-22.67447 -54.83251,-34.35714 -0.001,-0.005 -0.002,-0.005 -0.004,-0.005 a 283.74952,283.74952 0 0 1 -4.03328,-3.12106 6.784582,6.784582 0 0 1 -1.12144,-9.52858 6.790664,6.790664 0 0 1 9.52614,-1.12387 250.7206,250.7206 0 0 0 3.8472,2.98118 c 14.76723,11.23628 32.58497,22.3935 52.95696,33.16029 a 6.783366,6.783366 0 0 1 -3.17701,12.77977 z M 187.6561,551.88283 a 6.760256,6.760256 0 0 1 -4.89809,-2.09083 c -21.99455,-22.93963 -33.74046,-47.10529 -34.91177,-71.82438 -0.007,-24.55245 13.1763,-69.96585 41.4762,-90.4765 14.63466,-10.6038 31.7591,-13.42078 49.6559,-8.19672 15.58945,-5.13162 70.06072,-20.83906 79.45916,6.40752 l 0.18001,0.61424 c 1.44863,5.97695 6.0998,22.98098 10.15863,29.79232 7.70533,12.93425 42.13301,-0.76506 67.26686,-10.76557 28.29017,-11.25452 50.70435,-20.16643 57.62759,-5.40285 a 279.56785,279.56785 0 0 0 9.694,14.10921 6.784582,6.784582 0 0 1 -10.94923,8.01062 c -6.18007,-8.44485 -10.30945,-15.02509 -10.48217,-15.30119 l -0.40625,-0.7456 c -4.84821,-2.24531 -26.24555,6.27373 -40.47152,11.93323 -32.95352,13.11183 -70.30886,27.9788 -83.93397,5.10242 -5.60355,-9.40573 -10.68651,-29.45905 -11.59753,-33.16393 -4.32155,-10.98451 -39.96067,-5.39069 -64.26013,2.94712 l -2.15166,0.7383 -2.16138,-0.7079 c -14.58722,-4.77645 -27.93623,-2.88995 -39.66877,5.60841 -23.41155,16.96754 -35.87995,56.882 -35.87995,79.17211 1.00345,21.02637 11.48684,42.251 31.14729,62.76043 a 6.778501,6.778501 0 0 1 -0.20191,9.58575 6.739579,6.739579 0 0 1 -4.69131,1.89379 z m 512.54612,-62.97936 c -8.73311,0 -14.62979,-1.2978 -17.98194,-5.55975 -1.36105,-1.73203 -3.3704,-5.48435 -1.52039,-11.13412 0.86845,-2.65277 1.62621,-6.20926 0.32111,-8.11279 -2.9228,-4.26925 -16.02855,-4.95403 -26.55937,-5.50746 -18.2702,-0.96088 -41.00792,-2.15287 -42.84455,-22.02009 -0.97305,-10.53933 -4.97349,-12.89289 -6.28833,-13.66525 -10.83246,-6.38442 -36.81043,5.06837 -59.71357,15.16253 -28.0092,12.34677 -54.45667,24.01728 -68.67048,11.85903 -3.42635,-2.93496 -7.11663,-6.607 -10.95531,-10.91882 a 6.778501,6.778501 0 0 1 0.55342,-9.5748 6.780933,6.780933 0 0 1 9.5748,0.55221 c 3.43486,3.85448 6.67876,7.09474 9.64656,9.63561 7.72966,6.59727 33.59086,-4.802 54.38127,-13.96568 28.4045,-12.51949 55.23511,-24.34203 72.06277,-14.44248 7.50099,4.41278 11.84443,12.52436 12.91479,24.11215 0.70303,7.59465 12.89654,8.81704 30.04653,9.71711 15.59918,0.81736 30.32992,1.59337 37.04153,11.38588 3.3485,4.88228 3.95787,11.12438 1.82203,18.56942 4.70469,0.8502 16.04801,-0.0401 25.40022,-0.77479 13.31374,-1.04724 29.87746,-2.34869 46.29766,-1.29172 a 6.783366,6.783366 0 0 1 6.3309,7.20664 c -0.24083,3.73894 -3.40689,6.58998 -7.20664,6.33212 -15.44472,-1.00711 -30.80429,0.21164 -44.35643,1.27834 -7.97413,0.62275 -14.71614,1.15671 -20.29658,1.15671 z"
       fill=""
       id="path5" />
  </g>
</svg>
