<?xml version="1.0" encoding="iso-8859-1"?>
<!-- Uploaded to: SVG Repo, www.svgrepo.com, Generator: SVG Repo Mixer Tools -->
<svg fill="#000000" version="1.1" id="Layer_1" xmlns="http://www.w3.org/2000/svg" xmlns:xlink="http://www.w3.org/1999/xlink" 
	 viewBox="0 0 512 512" xml:space="preserve">
<g>
	<g>
		<g>
			<path d="M479.66,350.456c-0.755-59.142-24.354-114.622-66.45-156.221c-37.122-36.682-84.876-58.836-136.226-63.591
				c1.263-2.844,1.971-5.989,1.971-9.303c0-12.678-10.277-22.954-22.954-22.954c-12.678,0-22.954,10.277-22.954,22.954
				c0,3.312,0.707,6.458,1.971,9.303c-51.35,4.755-99.104,26.909-136.226,63.591c-42.096,41.598-65.695,97.079-66.45,156.221
				l-0.202,15.873h447.724L479.66,350.456z M64.544,334.983C73.883,237.705,156.643,161.014,256,161.014
				s182.117,76.691,191.455,173.969H64.544z"/>
			<rect x="0" y="382.266" width="512" height="31.347"/>
			<path d="M97.606,304.694l30.357,7.818c0.148-0.575,15.387-57.75,65.264-79.462l-12.511-28.742
				C116.966,232.058,98.368,301.741,97.606,304.694z"/>
		</g>
	</g>
</g>
</svg>