<!DOCTYPE svg PUBLIC "-//W3C//DTD SVG 1.1//EN" "http://www.w3.org/Graphics/SVG/1.1/DTD/svg11.dtd">
<!-- Uploaded to: SVG Repo, www.svgrepo.com, Transformed by: SVG Repo Mixer Tools -->
<svg fill="#b9bdda" width="800px" height="800px" viewBox="0 0 256 256" id="Flat" xmlns="http://www.w3.org/2000/svg" stroke="#b9bdda">
<g id="SVGRepo_bgCarrier" stroke-width="0"/>
<g id="SVGRepo_tracerCarrier" stroke-linecap="round" stroke-linejoin="round"/>
<g id="SVGRepo_iconCarrier"> <path d="M60,48A12,12,0,1,0,72,60,12.01375,12.01375,0,0,0,60,48Zm68,0a12,12,0,1,0,12,12A12.01375,12.01375,0,0,0,128,48Zm68,24a12,12,0,1,0-12-12A12.01375,12.01375,0,0,0,196,72ZM60,184a12,12,0,1,0,12,12A12.01375,12.01375,0,0,0,60,184Zm68,0a12,12,0,1,0,12,12A12.01375,12.01375,0,0,0,128,184Zm68,0a12,12,0,1,0,12,12A12.01375,12.01375,0,0,0,196,184ZM60,116a12,12,0,1,0,12,12A12.01375,12.01375,0,0,0,60,116Zm68,0a12,12,0,1,0,12,12A12.01375,12.01375,0,0,0,128,116Zm68,0a12,12,0,1,0,12,12A12.01375,12.01375,0,0,0,196,116Z"/> </g>
</svg>