<!DOCTYPE svg PUBLIC "-//W3C//DTD SVG 1.1//EN" "http://www.w3.org/Graphics/SVG/1.1/DTD/svg11.dtd">
<!-- Uploaded to: SVG Repo, www.svgrepo.com, Transformed by: SVG Repo Mixer Tools -->
<svg fill="#000000" version="1.1" id="Layer_1" xmlns="http://www.w3.org/2000/svg" xmlns:xlink="http://www.w3.org/1999/xlink" viewBox="-56.32 -56.32 624.64 624.64" xml:space="preserve" width="800px" height="800px">
<g id="SVGRepo_bgCarrier" stroke-width="0" transform="translate(0,0), scale(1)">
<path transform="translate(-56.32, -56.32), scale(19.52)" d="M16,31.855334568987875C18.682250276483593,32.04822481877889,20.643844489999367,29.42160160518219,22.9634416942649,28.06103481001032C25.265718585612365,26.71062729705994,28.161964993550804,26.098985984782665,29.6225530279294,23.864984657724992C31.09968536704468,21.60567845491383,30.96305236349523,18.696917083564927,30.848935275831643,16C30.73824117087111,13.38397790523665,30.297164805269365,10.768885436010912,28.972829346016503,8.510133484926298C27.653123022516272,6.259276866810408,25.83459019064997,4.088241648215994,23.367283621802933,3.2394904532672815C20.990665888682546,2.4219361345654766,18.50089022711709,3.7979826081852153,16,4.047492097624961C13.776122167232698,4.2693645399311455,11.46867549599704,3.702149254370079,9.435220451915969,4.629468282229396C7.319121514762092,5.594475507231728,5.300788082146789,7.164104007450845,4.43359612963302,9.322133611887686C3.587460021150758,11.427765203826048,4.648091121581282,13.741210412891057,4.866036794203168,15.999999999999998C5.0622605289155915,18.03366335922166,4.8539072803789685,20.09329480180498,5.654261667727191,21.973114811103127C6.512942144677455,23.98992732276177,8.00666285227396,25.585364498845056,9.591742320972326,27.09942788806933C11.548642377741762,28.968653242908196,13.30078115647637,31.66122404860405,16,31.855334568987875" fill="#c3e4f0" strokewidth="0"/>
</g>
<g id="SVGRepo_tracerCarrier" stroke-linecap="round" stroke-linejoin="round"/>
<g id="SVGRepo_iconCarrier"> <g> <g> <g> <path d="M479.66,350.456c-0.755-59.142-24.354-114.622-66.45-156.221c-37.122-36.682-84.876-58.836-136.226-63.591 c1.263-2.844,1.971-5.989,1.971-9.303c0-12.678-10.277-22.954-22.954-22.954c-12.678,0-22.954,10.277-22.954,22.954 c0,3.312,0.707,6.458,1.971,9.303c-51.35,4.755-99.104,26.909-136.226,63.591c-42.096,41.598-65.695,97.079-66.45,156.221 l-0.202,15.873h447.724L479.66,350.456z M64.544,334.983C73.883,237.705,156.643,161.014,256,161.014 s182.117,76.691,191.455,173.969H64.544z"/> <rect x="0" y="382.266" width="512" height="31.347"/> <path d="M97.606,304.694l30.357,7.818c0.148-0.575,15.387-57.75,65.264-79.462l-12.511-28.742 C116.966,232.058,98.368,301.741,97.606,304.694z"/> </g> </g> </g> </g>
</svg>