<!DOCTYPE svg PUBLIC "-//W3C//DTD SVG 1.1//EN" "http://www.w3.org/Graphics/SVG/1.1/DTD/svg11.dtd">
<!-- Uploaded to: SVG Repo, www.svgrepo.com, Transformed by: SVG Repo Mixer Tools -->
<svg fill="#abd5e2" height="256px" width="256px" version="1.1" id="Layer_1" xmlns="http://www.w3.org/2000/svg" xmlns:xlink="http://www.w3.org/1999/xlink" viewBox="0 0 512.004 512.004" xml:space="preserve" transform="rotate(0)">
<g id="SVGRepo_bgCarrier" stroke-width="0"/>
<g id="SVGRepo_tracerCarrier" stroke-linecap="round" stroke-linejoin="round"/>
<g id="SVGRepo_iconCarrier"> <g> <g> <path d="M511.896,255.912c0-39.951-30.386-72.93-69.259-77.062c11.114-13.466,17.799-30.716,17.799-49.499 c0-42.941-34.934-77.877-77.877-77.877c-18.787,0-36.043,6.687-49.51,17.807C328.927,30.398,295.941,0,255.983,0 c-39.949,0-72.928,30.383-77.061,69.253c-13.462-11.103-30.704-17.78-49.476-17.78c-42.941,0-77.877,34.936-77.877,77.877 c0,18.782,6.685,36.034,17.799,49.499c-38.873,4.131-69.259,37.111-69.259,77.062c0,39.997,30.458,73.013,69.397,77.08 c-11.194,13.49-17.935,30.8-17.935,49.659c0,42.941,34.935,77.876,77.877,77.876c18.787,0,36.043-6.687,49.51-17.807 c4.121,38.883,37.107,69.279,77.065,69.279c39.949,0,72.928-30.383,77.061-69.253c13.462,11.103,30.704,17.779,49.476,17.779 c42.941,0,77.877-34.935,77.877-77.876c0-18.859-6.741-36.169-17.935-49.659C481.438,328.925,511.896,295.909,511.896,255.912z M382.558,70.215c32.607,0,59.135,26.527,59.135,59.135c0,32.607-26.527,59.133-59.135,59.133 c-32.608,0-59.135-26.527-59.135-59.133C323.424,96.743,349.951,70.215,382.558,70.215z M368.485,296.638 c1.851,2.985,3.888,5.841,6.115,8.539c-3.557,0.362-7.038,0.985-10.44,1.812C365.757,303.62,367.203,300.169,368.485,296.638z M364.252,205.033c3.331,0.806,6.74,1.413,10.221,1.774c-2.177,2.65-4.173,5.453-5.989,8.379 C367.228,211.724,365.813,208.339,364.252,205.033z M255.983,356.813c-55.391,0-100.484-44.868-100.883-100.168 c0.003-0.245,0.019-0.487,0.019-0.733s-0.016-0.489-0.019-0.733c0.397-55.299,45.49-100.167,100.883-100.167 c55.637,0,100.901,45.264,100.901,100.9C356.884,311.549,311.62,356.813,255.983,356.813z M306.919,364.154 c-0.828,3.39-1.449,6.86-1.817,10.404c-2.701-2.217-5.558-4.251-8.545-6.093C300.091,367.189,303.547,365.747,306.919,364.154z M215.458,368.485c-2.99,1.844-5.849,3.881-8.553,6.101c-0.366-3.549-0.987-7.021-1.815-10.412 C208.463,365.767,211.922,367.208,215.458,368.485z M205.136,147.629c0.802-3.321,1.407-6.717,1.767-10.187 c2.644,2.169,5.438,4.16,8.355,5.97C211.806,144.664,208.431,146.074,205.136,147.629z M296.71,143.41 c2.93-1.818,5.735-3.817,8.389-5.998c0.36,3.486,0.968,6.898,1.774,10.235C303.564,146.087,300.174,144.669,296.71,143.41z M255.983,18.742c32.402,0,58.764,26.362,58.764,58.762c0,32.403-26.362,58.764-58.764,58.764s-58.764-26.362-58.764-58.764 C197.22,45.104,223.581,18.742,255.983,18.742z M129.445,70.215c32.607,0,59.135,26.527,59.135,59.135 c0,32.607-26.527,59.133-59.135,59.133s-59.135-26.527-59.135-59.133C70.312,96.743,96.839,70.215,129.445,70.215z M143.495,296.675c1.277,3.515,2.718,6.951,4.307,10.303c-3.387-0.822-6.855-1.441-10.398-1.802 C139.621,302.492,141.65,299.647,143.495,296.675z M137.531,206.807c3.467-0.36,6.861-0.963,10.178-1.764 c-1.552,3.29-2.963,6.66-4.215,10.106C141.685,212.236,139.697,209.446,137.531,206.807z M18.85,255.912 c0-32.402,26.362-58.762,58.764-58.762c32.074,0,58.213,25.834,58.739,57.785c-0.003,0.326-0.012,0.651-0.012,0.977 s0.01,0.651,0.012,0.977c-0.526,31.952-26.664,57.786-58.739,57.786C45.212,314.675,18.85,288.314,18.85,255.912z M129.445,441.784c-32.607,0-59.135-26.527-59.135-59.133c0-32.608,26.527-59.135,59.135-59.135s59.135,26.527,59.135,59.135 C188.58,415.257,162.053,441.784,129.445,441.784z M256.021,493.258c-32.402,0-58.764-26.362-58.764-58.762 c0-32.403,26.362-58.764,58.764-58.764c32.402,0,58.763,26.362,58.763,58.764C314.784,466.896,288.423,493.258,256.021,493.258z M382.558,441.784c-32.607,0-59.135-26.527-59.135-59.133c0-32.608,26.527-59.135,59.135-59.135 c32.608,0,59.135,26.527,59.135,59.135C441.692,415.257,415.165,441.784,382.558,441.784z M434.39,314.675 c-32.402,0-58.764-26.362-58.764-58.764s26.362-58.762,58.764-58.762s58.764,26.362,58.764,58.762 C493.153,288.314,466.792,314.675,434.39,314.675z"/> </g> </g> <g> <g> <circle cx="151.228" cy="9.371" r="9.371"/> </g> </g> <g> <g> <circle cx="359.818" cy="9.371" r="9.371"/> </g> </g> <g> <g> <circle cx="495.263" cy="156.973" r="9.371"/> </g> </g> <g> <g> <circle cx="15.581" cy="156.973" r="9.371"/> </g> </g> <g> <g> <circle cx="501.96" cy="357.467" r="9.371"/> </g> </g> <g> <g> <circle cx="15.581" cy="357.467" r="9.371"/> </g> </g> <g> <g> <circle cx="357.531" cy="502.633" r="9.371"/> </g> </g> <g> <g> <circle cx="156.488" cy="502.633" r="9.371"/> </g> </g> </g>
</svg>