<?xml version="1.0" encoding="iso-8859-1"?>
<!-- Uploaded to: SVG Repo, www.svgrepo.com, Generator: SVG Repo Mixer Tools -->
<svg fill="#000000" height="800px" width="800px" version="1.1" id="Layer_1" xmlns="http://www.w3.org/2000/svg" xmlns:xlink="http://www.w3.org/1999/xlink" 
	 viewBox="0 0 512 512" xml:space="preserve">
<g>
	<g>
		<path d="M510.994,174.936l-10.413-21.694c-5.506-11.472-15.793-19.613-28.225-22.336c-12.431-2.726-25.178,0.371-34.976,8.49
			c-8.32,6.894-13.519,16.609-14.64,27.357c-0.028,0.272-0.046,0.546-0.052,0.82l-0.854,36.732
			c-15.413,8.331-69.296,33.825-152.77,34.746c-1.119,0.012-2.221,0.018-3.324,0.018c-67.091,0-104.733-22.703-134.782-44.06
			c-19.997-14.214-44.384-19.888-68.67-15.972c-24.237,3.906-45.644,16.915-60.279,36.632c-2.662,3.586-2.681,8.487-0.048,12.093
			c2.634,3.605,7.305,5.081,11.535,3.636c45.618-15.587,58.302,8.832,61.103,16.687c12.542,35.184,36.089,67.597,66.301,91.267
			c11.304,8.857,23.29,16.307,35.791,22.31h-62.214c-5.632,0-10.199,4.567-10.199,10.199s4.567,10.199,10.199,10.199h284.188
			c5.632,0,10.199-4.567,10.199-10.199s-4.567-10.199-10.199-10.199h-59.038c60.652-27.905,102.364-85.157,102.466-151.132
			c0-0.002,0-0.003,0-0.005l0.977-42.028c0.641-5.261,3.232-10.006,7.323-13.396c4.929-4.085,11.337-5.643,17.598-4.271
			c6.254,1.371,11.43,5.466,14.2,11.238l10.412,21.694c2.44,5.079,8.53,7.218,13.609,4.781
			C511.291,186.106,513.431,180.013,510.994,174.936z M255.999,359.372c-82.498,0-141.902-61.238-162.186-118.135
			c-6.182-17.341-22.282-33.632-49.446-35.134c23.394-11.628,52.32-10.427,74.775,5.534c35.007,24.882,77.006,47.831,146.611,47.831
			c1.171,0,2.351-0.006,3.537-0.02c74.526-0.822,126.34-19.887,151.267-31.606C410.875,301.807,340.768,359.372,255.999,359.372z"/>
	</g>
</g>
<g>
	<g>
		<path d="M443.356,361.664h-4.583c-5.632,0-10.199,4.567-10.199,10.199c0,5.632,4.567,10.199,10.199,10.199h4.583
			c5.632,0,10.199-4.567,10.199-10.199C453.555,366.231,448.989,361.664,443.356,361.664z"/>
	</g>
</g>
</svg>