<!DOCTYPE svg PUBLIC "-//W3C//DTD SVG 1.1//EN" "http://www.w3.org/Graphics/SVG/1.1/DTD/svg11.dtd">
<!-- Uploaded to: SVG Repo, www.svgrepo.com, Transformed by: SVG Repo Mixer Tools -->
<svg fill="#000000" height="800px" width="800px" version="1.1" id="Layer_1" xmlns="http://www.w3.org/2000/svg" xmlns:xlink="http://www.w3.org/1999/xlink" viewBox="-51.2 -51.2 614.40 614.40" enable-background="new 0 0 512 512" xml:space="preserve">
<g id="SVGRepo_bgCarrier" stroke-width="0">
<path transform="translate(-51.2, -51.2), scale(19.2)" d="M16,31.767267587993828C19.196464242967647,32.182190842399834,21.976872295386222,29.708173848214713,24.531662917077057,27.742826590619217C27.019875565882224,25.82869638201246,29.76431509767126,23.754241661422856,30.409873561703517,20.682051740423297C31.035740869259474,17.70357133735255,29.192109557678176,14.873412719926263,27.805182245081724,12.164263770953948C26.62935223847328,9.8674609049048,25.16921153279185,7.76833828319198,23.04724766252714,6.300295728214909C20.963878597687554,4.858954295513813,18.496958683983706,4.424949808605978,16,3.9970606682556014C12.947686731893254,3.474003675463658,9.52243687585763,1.8197587671668982,6.948391182177048,3.541529271971031C4.3766902235308836,5.261731391398884,4.738396715427769,9.09130726738969,3.922376655217443,12.075742291597791C3.1547775267902396,14.88308715373182,1.3228232704737097,17.710966231997475,2.3272231879383494,20.442554488435395C3.3247093284824674,23.155339884065242,6.712922700485066,23.87507700950127,8.938895145348605,25.71877706049341C11.385549934107729,27.745261067159493,12.849521664927533,31.358313623750437,16,31.767267587993828" fill="#ffa9a0" strokewidth="0"/>
</g>
<g id="SVGRepo_tracerCarrier" stroke-linecap="round" stroke-linejoin="round"/>
<g id="SVGRepo_iconCarrier"> <polygon points="247.5,0 34.2,213.3 34.2,341.3 204.8,170.7 204.8,512 290.2,512 290.2,170.7 460.8,341.3 460.8,213.3 "/> </g>
</svg>